<svg width="109" height="24" viewBox="0 0 109 24" fill="none" xmlns="http://www.w3.org/2000/svg">
<path d="M20 4.00006H4C2.9 4.00006 2 4.90006 2 6.00006V18.0001C2 19.1001 2.9 20.0001 4 20.0001H20C21.1 20.0001 22 19.1001 22 18.0001V6.00006C22 4.90006 21.1 4.00006 20 4.00006ZM9.5 16.5001V7.50006L16.5 12.0001L9.5 16.5001Z" fill="#FF0000"/>
<path d="M31.5933 10.5508L34.3413 4.07031H38.2275L33.4185 13.6372V19H29.7681V13.6372L24.9692 4.07031H28.835L31.5933 10.5508Z" fill="white"/>
<path d="M38.043 13.3501C38.043 12.2427 38.2583 11.2583 38.689 10.397C39.1196 9.52881 39.7383 8.8623 40.5449 8.39746C41.3516 7.93262 42.2983 7.7002 43.3853 7.7002C45.0464 7.7002 46.3555 8.21631 47.3125 9.24854C48.2695 10.2739 48.748 11.6719 48.748 13.4424V13.5654C48.748 15.2949 48.2661 16.6689 47.3022 17.6875C46.3452 18.6992 45.0464 19.2051 43.4058 19.2051C41.8267 19.2051 40.5586 18.7334 39.6016 17.79C38.6445 16.8398 38.1284 15.5547 38.0532 13.9346L38.043 13.3501ZM41.4985 13.5654C41.4985 14.5908 41.6592 15.3428 41.9805 15.8213C42.3018 16.2998 42.7769 16.5391 43.4058 16.5391C44.6362 16.5391 45.2651 15.5923 45.2925 13.6987V13.3501C45.2925 11.3608 44.6567 10.3662 43.3853 10.3662C42.23 10.3662 41.6045 11.2241 41.5088 12.9399L41.4985 13.5654Z" fill="white"/>
<path d="M56.8794 17.8003C56.1479 18.7368 55.1602 19.2051 53.916 19.2051C52.6992 19.2051 51.7764 18.853 51.1475 18.1489C50.5254 17.438 50.2144 16.4194 50.2144 15.0933V7.90527H53.6699V15.1138C53.6699 16.064 54.1313 16.5391 55.0542 16.5391C55.8472 16.5391 56.4111 16.2554 56.7461 15.688V7.90527H60.2222V19H56.9819L56.8794 17.8003Z" fill="white"/>
<path d="M74.0034 6.84912H69.5225V19H65.9233V6.84912H61.5244V4.07031H74.0034V6.84912Z" fill="white"/>
<path d="M81.3042 17.8003C80.5728 18.7368 79.585 19.2051 78.3408 19.2051C77.124 19.2051 76.2012 18.853 75.5723 18.1489C74.9502 17.438 74.6392 16.4194 74.6392 15.0933V7.90527H78.0947V15.1138C78.0947 16.064 78.5562 16.5391 79.479 16.5391C80.272 16.5391 80.8359 16.2554 81.1709 15.688V7.90527H84.647V19H81.4067L81.3042 17.8003Z" fill="white"/>
<path d="M96.8491 13.5449C96.8491 15.3633 96.4731 16.7612 95.7212 17.7388C94.9692 18.7163 93.9097 19.2051 92.5425 19.2051C91.4146 19.2051 90.5054 18.7573 89.8149 17.8618L89.6714 19H86.5747V3.25H90.0303V8.79736C90.6729 8.06592 91.5034 7.7002 92.522 7.7002C93.9028 7.7002 94.9692 8.1958 95.7212 9.18701C96.4731 10.1782 96.8491 11.5728 96.8491 13.3706V13.5449ZM93.3833 13.3296C93.3833 12.2632 93.2397 11.5044 92.9526 11.0532C92.6724 10.5952 92.2383 10.3662 91.6504 10.3662C90.8711 10.3662 90.3311 10.6636 90.0303 11.2583V15.6675C90.3242 16.2554 90.8711 16.5493 91.6709 16.5493C92.4844 16.5493 93.0005 16.1528 93.2192 15.3599C93.3286 14.9702 93.3833 14.2935 93.3833 13.3296Z" fill="white"/>
<path d="M103.75 19.2051C102.048 19.2051 100.67 18.6992 99.6177 17.6875C98.5649 16.6689 98.0386 15.3462 98.0386 13.7192V13.4321C98.0386 12.2974 98.2471 11.2959 98.6641 10.4277C99.0879 9.55957 99.7031 8.88965 100.51 8.41797C101.316 7.93945 102.273 7.7002 103.381 7.7002C104.939 7.7002 106.17 8.18555 107.072 9.15625C107.975 10.1201 108.426 11.4668 108.426 13.1963V14.5396H101.556C101.679 15.1616 101.949 15.6504 102.366 16.0059C102.783 16.3613 103.323 16.5391 103.986 16.5391C105.08 16.5391 105.934 16.1562 106.549 15.3906L108.128 17.2568C107.698 17.8516 107.086 18.3267 106.293 18.6821C105.507 19.0308 104.659 19.2051 103.75 19.2051ZM103.36 10.3662C102.349 10.3662 101.747 11.0361 101.556 12.376H105.042V12.1094C105.056 11.5557 104.916 11.1284 104.622 10.8276C104.328 10.52 103.907 10.3662 103.36 10.3662Z" fill="white"/>
</svg>
